<?xml version="1.0" encoding="utf-8"?>
<!-- Generator: Adobe Illustrator 26.0.0, SVG Export Plug-In . SVG Version: 6.00 Build 0)  -->
<svg version="1.1" id="Layer_1" xmlns="http://www.w3.org/2000/svg" xmlns:xlink="http://www.w3.org/1999/xlink" x="0px" y="0px"
	 viewBox="0 0 300 196" style="enable-background:new 0 0 300 196;" xml:space="preserve">
<style type="text/css">
	.st0{display:none;}
	.st1{display:inline;fill:#BB94C3;}
	.st2{fill-rule:evenodd;clip-rule:evenodd;fill:#0A9A9A;}
</style>
<g class="st0">
	<path class="st1" d="M277,118.4h-0.9v-2.1l-1.6-1.7l-3,3.8h-1.1l3.5-4.4l-3.3-3.4h1.1l4.5,4.6v-4.6h0.9v7.8
		C277.1,118.4,277,118.4,277,118.4z"/>
	<path class="st1" d="M269.1,111.4h-1v-0.9h1V111.4z M269.1,118.4h-0.9v-5.7h0.9V118.4z"/>
	<path class="st1" d="M264.3,118.5c-0.4,0-0.7-0.1-1-0.2v-0.7c0.3,0.1,0.5,0.2,0.8,0.2c0.6,0,1-0.3,1-0.9v-3.3h-1.8v-0.8h1.8v-1.7
		h0.9v1.7h0.8v0.8H266v3.5C265.9,118,265.2,118.5,264.3,118.5z"/>
	<path class="st1" d="M259.3,118.5c-1.1,0-1.8-0.5-2.3-1.1l0.5-0.5c0.5,0.5,1,0.8,1.8,0.8c1.2,0,2.1-1,2.1-2.2l0,0
		c0-1.2-0.9-2.2-2-2.2c-0.8,0-1.3,0.4-1.7,0.9l-0.6-0.6c0.5-0.6,1.2-1,2.3-1c1.7,0,2.9,1.4,2.9,3l0,0
		C262.3,117.1,261,118.5,259.3,118.5z"/>
	<path class="st1" d="M255.6,118.4h-0.9v-3.3c0-1.1-0.7-1.8-1.7-1.8s-1.6,0.7-1.6,1.7v3.3h-0.9v-3.6c0-1.4,0.8-2.3,2.2-2.3
		c1,0,1.6,0.5,2,1.1v-3.4h0.9V118.4z"/>
	<path class="st1" d="M248.2,115.9h-4.5c0-0.1,0-0.2,0-0.3c0-1.7,1-3,2.7-3c1.6,0,2.8,1.3,2.8,3c0,1.8-1.3,3-2.9,3
		c-1.1,0-1.8-0.4-2.4-1.1l0.5-0.5c0.5,0.5,1,0.8,1.8,0.8C247.2,117.8,248.1,117.1,248.2,115.9z M248.2,115.2
		c-0.1-1.1-0.9-1.9-1.9-1.9c-1.1,0-1.7,0.9-1.8,1.9H248.2z"/>
	<path class="st1" d="M242.2,118.4h-0.9v-3.3c0-1.1-0.7-1.8-1.7-1.8S238,114,238,115v3.3h-0.9v-3.6c0-1.4,0.8-2.3,2.2-2.3
		c1,0,1.6,0.5,2,1.1v-1h0.9V118.4z"/>
	<path class="st1" d="M230.3,118.5c-1,0-1.7-0.5-2.1-1v0.8h-0.8v-3.5c0-0.7,0.2-1.3,0.6-1.7c0.4-0.4,1-0.6,1.9-0.6
		c0.8,0,1.5,0.2,2.1,0.5l-0.3,0.7c-0.5-0.2-1.1-0.4-1.7-0.4c-1.1,0-1.7,0.5-1.7,1.6v0.2c0.5-0.1,1-0.2,1.8-0.2
		c1.5,0,2.5,0.6,2.5,1.9l0,0C232.4,117.9,231.4,118.5,230.3,118.5z M230.1,117.8c0.8,0,1.4-0.4,1.4-1.1l0,0c0-0.7-0.6-1.2-1.7-1.2
		c-0.7,0-1.2,0.1-1.7,0.2v0.5C228.2,117.2,229.1,117.8,230.1,117.8z"/>
	<path class="st1" d="M225.6,120.2h-0.9v-2.9c-0.4,0.6-1.1,1.2-2.2,1.2c-1.4,0-2.7-1.1-2.7-3l0,0c0-1.9,1.4-3,2.7-3
		c1,0,1.7,0.6,2.2,1.3v-1.2h0.9V120.2z M222.7,117.7c1.1,0,2.1-0.9,2.1-2.2l0,0c0-1.3-1-2.2-2.1-2.2s-2,0.9-2,2.2l0,0
		C220.7,116.9,221.6,117.7,222.7,117.7z"/>
	<path class="st1" d="M218.2,120.2h-0.9v-2.9c-0.4,0.6-1.1,1.2-2.2,1.2c-1.4,0-2.7-1.1-2.7-3l0,0c0-1.9,1.4-3,2.7-3
		c1,0,1.7,0.6,2.2,1.3v-1.2h0.9V120.2z M215.3,117.7c1.1,0,2.1-0.9,2.1-2.2l0,0c0-1.3-1-2.2-2.1-2.2s-2,0.9-2,2.2l0,0
		C213.3,116.9,214.2,117.7,215.3,117.7z"/>
	<path class="st1" d="M210.8,118.4h-0.9v-8.1h0.9V118.4z"/>
	<path class="st1" d="M207.9,111.4h-1v-0.9h1V111.4z M207.8,118.4H207v-5.7h0.9L207.8,118.4L207.8,118.4z"/>
	<path class="st1" d="M203.3,118.5c-1,0-1.7-0.5-2.1-1v0.8h-0.8v-3.5c0-0.7,0.2-1.3,0.6-1.7c0.4-0.4,1-0.6,1.9-0.6
		c0.8,0,1.5,0.2,2.1,0.5l-0.3,0.7c-0.5-0.2-1.1-0.4-1.7-0.4c-1.1,0-1.7,0.5-1.7,1.6v0.2c0.5-0.1,1-0.2,1.8-0.2
		c1.5,0,2.5,0.6,2.5,1.9l0,0C205.4,117.9,204.4,118.5,203.3,118.5z M203.1,117.8c0.8,0,1.4-0.4,1.4-1.1l0,0c0-0.7-0.6-1.2-1.7-1.2
		c-0.7,0-1.2,0.1-1.7,0.2v0.5C201.2,117.2,202.1,117.8,203.1,117.8z"/>
	<path class="st1" d="M198.6,118.4h-0.9v-3.3c0-1.1-0.7-1.8-1.7-1.8s-1.6,0.7-1.6,1.7v3.3h-0.9v-3.6c0-1.4,0.8-2.3,2.2-2.3
		c1,0,1.6,0.5,2,1.1v-1h0.9V118.4z"/>
	<path class="st1" d="M189.1,118.5c-1.1,0-1.8-0.5-2.3-1.1l0.5-0.5c0.5,0.5,1,0.8,1.8,0.8c1.2,0,2.1-1,2.1-2.2l0,0
		c0-1.2-0.9-2.2-2-2.2c-0.8,0-1.3,0.4-1.7,0.9l-0.6-0.6c0.5-0.6,1.2-1,2.3-1c1.7,0,2.9,1.4,2.9,3l0,0
		C192.1,117.1,190.8,118.5,189.1,118.5z"/>
	<path class="st1" d="M185.1,115.9h-4.5c0-0.1,0-0.2,0-0.3c0-1.7,1-3,2.7-3c1.6,0,2.8,1.3,2.8,3c0,1.8-1.3,3-2.9,3
		c-1.1,0-1.8-0.4-2.4-1.1l0.5-0.5c0.5,0.5,1,0.8,1.8,0.8C184,117.8,184.9,117.1,185.1,115.9z M185.1,115.2c-0.1-1.1-0.9-1.9-1.9-1.9
		c-1.1,0-1.7,0.9-1.8,1.9H185.1z"/>
	<path class="st1" d="M177.1,118.5c-1.1,0-2-0.6-2-1.7l0,0c0-1,1-1.4,1.8-1.6s1.5-0.4,1.5-1l0,0c0-0.5-0.4-0.8-1.1-0.8
		c-0.5,0-1.2,0.2-1.7,0.6l-0.4-0.6c0.6-0.4,1.4-0.6,2.1-0.6c1.1,0,2,0.7,2,1.6l0,0c0,1.1-1,1.4-1.9,1.6c-0.8,0.2-1.4,0.4-1.4,1l0,0
		c0,0.6,0.5,0.9,1.2,0.9s1.4-0.3,2-0.7l0.4,0.6C178.8,118.2,177.9,118.5,177.1,118.5z"/>
	<path class="st1" d="M168.4,118.5c-1,0-1.7-0.5-2.1-1v0.8h-0.8v-3.5c0-0.7,0.2-1.3,0.6-1.7c0.4-0.4,1-0.6,1.9-0.6
		c0.8,0,1.5,0.2,2.1,0.5l-0.3,0.7c-0.5-0.2-1.1-0.4-1.7-0.4c-1.1,0-1.7,0.5-1.7,1.6v0.2c0.5-0.1,1-0.2,1.8-0.2
		c1.5,0,2.5,0.6,2.5,1.9l0,0C170.6,117.9,169.5,118.5,168.4,118.5z M168.3,117.8c0.8,0,1.4-0.4,1.4-1.1l0,0c0-0.7-0.6-1.2-1.7-1.2
		c-0.7,0-1.2,0.1-1.7,0.2v0.5C166.4,117.2,167.2,117.8,168.3,117.8z"/>
	<path class="st1" d="M163.7,118.4h-0.9v-3.3c0-1.1-0.7-1.8-1.7-1.8s-1.6,0.7-1.6,1.7v3.3h-0.9v-3.6c0-1.4,0.8-2.3,2.2-2.3
		c1,0,1.6,0.5,2,1.1v-1h0.9V118.4z"/>
	<path class="st1" d="M154.5,118.5c-1,0-1.7-0.6-2.2-1.3v1.2h-0.9v-8.1h0.9v3.5c0.4-0.6,1.1-1.2,2.2-1.2c1.4,0,2.7,1.1,2.7,3l0,0
		C157.2,117.4,155.8,118.5,154.5,118.5z M154.3,117.7c1.1,0,2-0.9,2-2.2l0,0c0-1.4-0.9-2.2-2-2.2s-2.1,0.9-2.1,2.2l0,0
		C152.2,116.8,153.2,117.7,154.3,117.7z"/>
	<path class="st1" d="M143.1,118.5c-1.4,0-2.7-1.1-2.7-3l0,0c0-1.9,1.4-3,2.7-3c1,0,1.7,0.6,2.2,1.3v-3.5h0.9v8.1h-0.9v-1.1
		C144.9,117.9,144.2,118.5,143.1,118.5z M143.3,117.7c1.1,0,2.1-0.9,2.1-2.2l0,0c0-1.3-1-2.2-2.1-2.2s-2,0.9-2,2.2l0,0
		C141.3,116.9,142.2,117.7,143.3,117.7z"/>
	<path class="st1" d="M138.3,115.9h-4.6c0-0.1,0-0.2,0-0.3c0-1.7,1-3,2.7-3c1.6,0,2.8,1.3,2.8,3c0,1.8-1.3,3-2.9,3
		c-1.1,0-1.8-0.4-2.4-1.1l0.5-0.5c0.5,0.5,1,0.8,1.8,0.8C137.3,117.8,138.2,117.1,138.3,115.9z M138.3,115.2
		c-0.1-1.1-0.9-1.9-1.9-1.9c-1.1,0-1.7,0.9-1.8,1.9H138.3z"/>
	<path class="st1" d="M131.6,120.2c-0.9,0-1.4-0.4-1.9-1.6l-2.4-5.9h0.9l1.8,4.8l2.1-4.8h0.9l-2.6,5.7c0.3,0.8,0.7,1.1,1.2,1.1
		c0.4,0,0.6-0.1,0.9-0.2l0.3,0.7C132.5,120.1,132.1,120.2,131.6,120.2z"/>
	<path class="st1" d="M123.7,118.5c-1.7,0-3-1.4-3-3l0,0c0-1.6,1.3-3,3-3s3,1.4,3,3l0,0C126.6,117.2,125.4,118.5,123.7,118.5z
		 M123.7,117.7c1.2,0,2.1-1,2.1-2.2l0,0c0-1.2-0.9-2.2-2.1-2.2s-2.1,1-2.1,2.2l0,0C121.5,116.7,122.4,117.7,123.7,117.7z"/>
	<path class="st1" d="M119.1,118.4h-0.9v-3.3c0-1.1-0.7-1.8-1.7-1.8s-1.6,0.7-1.6,1.7v3.3H114v-3.6c0-1.4,0.8-2.3,2.2-2.3
		c1,0,1.6,0.5,2,1.1v-1h0.9V118.4z"/>
	<path class="st1" d="M109.9,118.5c-1.1,0-1.7-0.6-2.2-1.3v1.2h-0.9v-8.1h0.9v3.5c0.4-0.6,1.1-1.2,2.2-1.2c1.4,0,2.7,1.1,2.7,3l0,0
		C112.6,117.4,111.3,118.5,109.9,118.5z M109.7,117.7c1.1,0,2-0.9,2-2.2l0,0c0-1.4-0.9-2.2-2-2.2s-2.1,0.9-2.1,2.2l0,0
		C107.6,116.8,108.7,117.7,109.7,117.7z"/>
</g>
<g id="SIEMENS">
	<g>
		<path class="st2" d="M76.9,106.8v-4.4c2.5,0.8,4.7,1.2,6.7,1.2c2.7,0,4-0.7,4-2.1c0-0.5-0.2-1-0.6-1.3c-0.4-0.4-1.4-0.9-3.1-1.6
			c-2.9-1.2-4.9-2.2-5.8-3.1c-1.2-1.1-1.7-2.6-1.7-4.3c0-2.2,0.8-3.9,2.5-5.1c1.7-1.2,3.8-1.7,6.5-1.7c1.5,0,3.6,0.3,6.4,0.8v4.3
			c-2.1-0.8-4-1.2-5.8-1.2c-2.5,0-3.8,0.7-3.8,2.1c0,0.5,0.3,0.9,0.8,1.3c0.4,0.3,1.6,0.8,3.5,1.7c2.7,1.2,4.6,2.3,5.5,3.2
			c1.1,1.1,1.6,2.4,1.6,4.1c0,2.4-1.1,4.3-3.2,5.6c-1.7,1-3.9,1.6-6.7,1.6C81.5,107.6,79.2,107.4,76.9,106.8L76.9,106.8z"/>
		<polygon class="st2" points="97.2,84.8 97.2,84.8 103.4,84.8 103.4,107.2 97.2,107.2 		"/>
		<polygon class="st2" points="109.2,107.2 109.2,84.8 125.2,84.8 125.2,88.8 115.2,88.8 115.2,93.9 123.9,93.9 123.9,97.6 
			115.2,97.6 115.2,102.9 125.5,102.9 125.5,107.2 		"/>
		<polygon class="st2" points="129.6,107.2 129.6,84.8 137.7,84.8 143.3,99.1 149.1,84.8 156.8,84.8 156.8,107.2 150.9,107.2 
			150.9,91.3 144.3,107.4 140.4,107.4 134,91.3 134,107.2 		"/>
		<polygon class="st2" points="162.6,107.2 162.6,84.8 178.6,84.8 178.6,88.8 168.6,88.8 168.6,93.9 177.3,93.9 177.3,97.6 
			168.6,97.6 168.6,102.9 178.9,102.9 178.9,107.2 		"/>
		<polygon class="st2" points="183,107.2 183,84.8 190.3,84.8 198,99.8 198,84.8 202.4,84.8 202.4,107.2 195.3,107.2 187.4,92 
			187.4,107.2 		"/>
		<path class="st2" d="M206.8,106.8v-4.4c2.5,0.8,4.7,1.2,6.7,1.2c2.7,0,4-0.7,4-2.1c0-0.5-0.2-1-0.6-1.3c-0.4-0.4-1.4-0.9-3.1-1.6
			c-2.9-1.2-4.9-2.2-5.8-3.1c-1.2-1.1-1.7-2.5-1.7-4.3c0-2.2,0.8-3.9,2.5-5c1.7-1.2,3.8-1.7,6.5-1.7c1.5,0,3.5,0.2,5.9,0.7l0.6,0.1
			v4.3c-2.1-0.8-4-1.2-5.8-1.2c-2.5,0-3.8,0.7-3.8,2.1c0,0.5,0.3,0.9,0.8,1.3c0.4,0.3,1.6,0.8,3.5,1.7c2.7,1.2,4.5,2.3,5.4,3.2
			c1.1,1.1,1.6,2.4,1.6,4.1c0,2.4-1,4.3-3.1,5.6c-1.7,1-3.9,1.6-6.7,1.6C211.5,107.6,209.1,107.4,206.8,106.8L206.8,106.8z"/>
	</g>
</g>
</svg>
